<?xml version="1.0" encoding="UTF-8" standalone="no"?>
<svg xmlns:dc="http://purl.org/dc/elements/1.1/" xmlns:cc="http://creativecommons.org/ns#" xmlns:rdf="http://www.w3.org/1999/02/22-rdf-syntax-ns#" xmlns:svg="http://www.w3.org/2000/svg" xmlns="http://www.w3.org/2000/svg" viewBox="0 0 299.68 299.67999" height="299.67999" width="299.68" xml:space="preserve" id="svg2" version="1.1">
  <metadata id="metadata8">
    <rdf:RDF>
      <cc:Work rdf:about="">
        <dc:format>image/svg+xml</dc:format>
        <dc:type rdf:resource="http://purl.org/dc/dcmitype/StillImage" />
      </cc:Work>
    </rdf:RDF>
  </metadata>
  <defs id="defs6" />
  <g transform="matrix(1.3333333,0,0,-1.3333333,0,299.68)" id="g10">
    <g transform="scale(0.1)" id="g12">
      <!-- <path id="path14" style="fill:#ffffff;fill-opacity:1;fill-rule:nonzero;stroke:none" d="M 5567.41,190.082 C 5567.41,96.5391 5490.87,20 5397.33,20 H 3529.92 c -93.55,0 -170.08,76.5391 -170.08,170.082 V 2057.5 c 0,93.55 76.53,170.08 170.08,170.08 h 1867.41 c 93.54,0 170.08,-76.53 170.08,-170.08 V 190.082" />
      <path id="path16" style="fill:none;stroke:#656263;stroke-width:40;stroke-linecap:butt;stroke-linejoin:miter;stroke-miterlimit:10;stroke-dasharray:none;stroke-opacity:1" d="M 5567.41,190.082 C 5567.41,96.5391 5490.87,20 5397.33,20 H 3529.92 c -93.55,0 -170.08,76.5391 -170.08,170.082 V 2057.5 c 0,93.55 76.53,170.08 170.08,170.08 h 1867.41 c 93.54,0 170.08,-76.53 170.08,-170.08 z" />
      <path id="path18" style="fill:#71bd4d;fill-opacity:1;fill-rule:nonzero;stroke:none" d="m 4772,919.73 c -72.16,0 -131.19,73.489 -131.19,163.34 v 524.86 c 0,89.84 59.03,163.34 131.19,163.34 h 7.46 c 72.15,0 131.19,34.44 131.19,76.53 0,42.09 -59.04,76.52 -131.19,76.52 h -130.39 c -72.17,0 -131.2,-73.5 -131.2,-163.33 V 930 c 0,-89.828 59.03,-163.34 131.2,-163.34 h 130.39 c 72.15,0 131.19,34.449 131.19,76.539 0,42.09 -59.04,76.531 -131.19,76.531 H 4772" />
      <path id="path20" style="fill:none;stroke:#71bd4d;stroke-width:25;stroke-linecap:butt;stroke-linejoin:miter;stroke-miterlimit:10;stroke-dasharray:none;stroke-opacity:1" d="m 4772,919.73 c -72.16,0 -131.19,73.489 -131.19,163.34 v 524.86 c 0,89.84 59.03,163.34 131.19,163.34 h 7.46 c 72.15,0 131.19,34.44 131.19,76.53 0,42.09 -59.04,76.52 -131.19,76.52 h -130.39 c -72.17,0 -131.2,-73.5 -131.2,-163.33 V 930 c 0,-89.828 59.03,-163.34 131.2,-163.34 h 130.39 c 72.15,0 131.19,34.449 131.19,76.539 0,42.09 -59.04,76.531 -131.19,76.531 z" />
      <path id="path22" style="fill:#54aabf;fill-opacity:1;fill-rule:nonzero;stroke:none" d="m 4151.79,1773.64 c 72.16,0 131.19,-73.5 131.19,-163.34 v -524.87 c 0,-89.828 -59.03,-163.34 -131.19,-163.34 h -7.46 c -72.15,0 -131.19,-34.43 -131.19,-76.52 0,-42.09 59.04,-76.531 131.19,-76.531 h 130.39 c 72.17,0 131.2,73.5 131.2,163.332 v 830.989 c 0,89.84 -59.03,163.34 -131.2,163.34 h -130.39 c -72.15,0 -131.19,-34.44 -131.19,-76.53 0,-42.09 59.04,-76.53 131.19,-76.53 h 7.46" />
      <path id="path24" style="fill:none;stroke:#54aabf;stroke-width:25;stroke-linecap:butt;stroke-linejoin:miter;stroke-miterlimit:10;stroke-dasharray:none;stroke-opacity:1" d="m 4151.79,1773.64 c 72.16,0 131.19,-73.5 131.19,-163.34 v -524.87 c 0,-89.828 -59.03,-163.34 -131.19,-163.34 h -7.46 c -72.15,0 -131.19,-34.43 -131.19,-76.52 0,-42.09 59.04,-76.531 131.19,-76.531 h 130.39 c 72.17,0 131.2,73.5 131.2,163.332 v 830.989 c 0,89.84 -59.03,163.34 -131.2,163.34 h -130.39 c -72.15,0 -131.19,-34.44 -131.19,-76.53 0,-42.09 59.04,-76.53 131.19,-76.53 z" />
      <path id="path26" style="fill:#231f20;fill-opacity:1;fill-rule:nonzero;stroke:none" d="m 3504.2,466.352 h -29.57 v 48.039 h 79.26 v -29.559 c 12.74,22.578 31.62,33.668 59.96,33.668 28.74,0 48.46,-12.328 63.24,-38.602 20.12,26.684 39.42,38.602 67.35,38.602 48.87,0 77.62,-32.441 77.62,-94.871 v -84.18 h 30.79 V 291 h -111.69 v 48.449 h 30.38 v 82.949 c 0,32.864 -13.14,49.282 -39.02,49.282 -28.34,0 -45.58,-20.942 -45.58,-61.192 v -71.039 h 30.8 V 291 h -109.65 v 48.449 h 30.39 v 82.949 c 0,32.864 -12.72,49.282 -39,49.282 -28.34,0 -45.59,-20.942 -45.59,-61.192 v -71.039 h 30.39 V 291 h -110.47 v 48.449 h 30.39 v 126.903" />
      <path id="path28" style="fill:#231f20;fill-opacity:1;fill-rule:nonzero;stroke:none" d="m 3878.29,466.352 h -27.11 v 48.039 h 107.18 v -48.039 h -27.11 l 38.2,-99.801 39.01,99.801 h -27.11 v 48.039 h 106.78 v -48.039 h -27.11 l -79.26,-198.364 h 34.09 v -48.457 h -121.14 v 48.457 h 34.08 l 14.38,35.321 -64.88,163.043" />
      <path id="path30" style="fill:#656263;fill-opacity:1;fill-rule:nonzero;stroke:none" d="m 4419.64,335.762 c 36.56,0 65.3,27.91 65.3,66.929 0,39.008 -28.74,66.938 -65.3,66.938 -38.6,0 -66.53,-28.328 -66.53,-66.938 0,-38.609 27.93,-66.929 66.53,-66.929 z m -117.03,199.16 h -29.56 v 48.047 h 79.65 v -95.68 c 19.31,22.172 41.48,32.031 70.64,32.031 66.53,0 114.99,-49.281 114.99,-116.629 0,-67.339 -48.46,-116.211 -114.99,-116.211 -27.51,0 -48.45,9.032 -70.64,29.981 V 291 h -80.9 v 48.449 h 30.81 v 195.473" />
      <path id="path32" style="fill:#656263;fill-opacity:1;fill-rule:nonzero;stroke:none" d="m 4736.24,422.809 c -9.45,31.632 -33.68,49.691 -62.42,49.691 -28.34,0 -53.39,-18.469 -62.83,-49.691 z M 4673.4,285.66 c -32.43,0 -61.59,11.5 -84.17,33.68 -22.18,21.762 -34.5,50.922 -34.5,83.351 0,32.45 12.32,61.598 34.5,83.368 22.58,22.16 51.74,34.082 84.17,34.082 32.45,0 62.43,-11.922 84.6,-34.082 22.18,-21.77 34.5,-50.508 34.5,-80.489 0,-5.75 -0.83,-13.968 -2.47,-24.648 h -178.22 c 9.44,-27.91 34.49,-45.16 62.01,-45.16 20.94,0 39.01,9.027 51.74,26.687 h 59.96 c -17.25,-47.64 -61.19,-76.789 -112.12,-76.789" />
      <path id="path34" style="fill:#656263;fill-opacity:1;fill-rule:nonzero;stroke:none" d="m 4873.41,382.23 c 9.46,-31.621 33.67,-49.691 62.42,-49.691 28.34,0 53.38,18.481 62.84,49.691 z m 62.84,137.161 c 32.44,0 61.6,-11.512 84.17,-33.692 22.19,-21.75 34.5,-50.91 34.5,-83.347 0,-32.454 -12.31,-61.602 -34.5,-83.364 -22.57,-22.179 -51.73,-34.09 -84.17,-34.09 -32.45,0 -62.43,11.911 -84.6,34.09 -22.17,21.762 -34.51,50.5 -34.51,80.481 0,5.75 0.84,13.972 2.48,24.64 h 178.23 c -9.46,27.922 -34.5,45.172 -62.02,45.172 -20.93,0 -39.01,-9.031 -51.73,-26.691 h -59.96 c 17.24,47.64 61.19,76.801 112.11,76.801" />
      <path id="path36" style="fill:#656263;fill-opacity:1;fill-rule:nonzero;stroke:none" d="m 5106.11,466.352 h -29.56 v 48.039 h 79.25 v -29.559 c 12.73,22.578 31.62,33.668 59.96,33.668 28.75,0 48.45,-12.328 63.24,-38.602 20.12,26.684 39.43,38.602 67.34,38.602 48.87,0 77.62,-32.441 77.62,-94.871 v -84.18 h 30.8 V 291 h -111.7 v 48.449 h 30.39 v 82.949 c 0,32.864 -13.14,49.282 -39.02,49.282 -28.34,0 -45.59,-20.942 -45.59,-61.192 v -71.039 h 30.8 V 291 H 5210 v 48.449 h 30.4 v 82.949 c 0,32.864 -12.74,49.282 -39.02,49.282 -28.32,0 -45.58,-20.942 -45.58,-61.192 v -71.039 h 30.39 V 291 h -110.47 v 48.449 h 30.39 v 126.903" />
      <path id="path38" style="fill:#54aabf;fill-opacity:1;fill-rule:nonzero;stroke:none" d="m 4212.39,458.988 c 0,-19.117 -15.51,-34.629 -34.62,-34.629 -19.12,0 -34.62,15.512 -34.62,34.629 0,19.114 15.5,34.614 34.62,34.614 19.11,0 34.62,-15.5 34.62,-34.614" />
      <path id="path40" style="fill:#71bd4d;fill-opacity:1;fill-rule:nonzero;stroke:none" d="m 4212.39,346.41 c 0,-19.121 -15.51,-34.629 -34.62,-34.629 -19.12,0 -34.62,15.508 -34.62,34.629 0,19.11 15.5,34.61 34.62,34.61 19.11,0 34.62,-15.5 34.62,-34.61" /> -->
      <path id="path42" style="fill:#ffffff;fill-opacity:0;fill-rule:nonzero;stroke:none" d="M 2207.57,190.082 C 2207.57,96.5391 2131.04,20 2037.49,20 H 170.078 C 76.5313,20 0,96.5391 0,190.082 V 2057.5 c 0,93.55 76.5313,170.08 170.078,170.08 H 2037.49 c 93.55,0 170.08,-76.53 170.08,-170.08 V 190.082" />
      <path id="path44" style="fill:#71bd4d;fill-opacity:1;fill-rule:nonzero;stroke:none" d="m 1412.16,919.73 c -72.16,0 -131.19,73.489 -131.19,163.34 v 524.86 c 0,89.84 59.03,163.34 131.19,163.34 h 7.46 c 72.15,0 131.19,34.44 131.19,76.53 0,42.09 -59.04,76.52 -131.19,76.52 h -130.39 c -72.17,0 -131.2,-73.5 -131.2,-163.33 V 930 c 0,-89.828 59.03,-163.34 131.2,-163.34 h 130.39 c 72.15,0 131.19,34.449 131.19,76.539 0,42.09 -59.04,76.531 -131.19,76.531 h -7.46" />
      <path id="path46" style="fill:none;stroke:#71bd4d;stroke-width:25;stroke-linecap:butt;stroke-linejoin:miter;stroke-miterlimit:10;stroke-dasharray:none;stroke-opacity:1" d="m 1412.16,919.73 c -72.16,0 -131.19,73.489 -131.19,163.34 v 524.86 c 0,89.84 59.03,163.34 131.19,163.34 h 7.46 c 72.15,0 131.19,34.44 131.19,76.53 0,42.09 -59.04,76.52 -131.19,76.52 h -130.39 c -72.17,0 -131.2,-73.5 -131.2,-163.33 V 930 c 0,-89.828 59.03,-163.34 131.2,-163.34 h 130.39 c 72.15,0 131.19,34.449 131.19,76.539 0,42.09 -59.04,76.531 -131.19,76.531 z" />
      <path id="path48" style="fill:#54aabf;fill-opacity:1;fill-rule:nonzero;stroke:none" d="m 791.953,1773.64 c 72.156,0 131.192,-73.5 131.192,-163.34 v -524.87 c 0,-89.828 -59.036,-163.34 -131.192,-163.34 h -7.461 c -72.148,0 -131.191,-34.43 -131.191,-76.52 0,-42.09 59.043,-76.531 131.191,-76.531 h 130.391 c 72.168,0 131.197,73.5 131.197,163.332 v 830.989 c 0,89.84 -59.029,163.34 -131.197,163.34 H 784.492 c -72.148,0 -131.191,-34.44 -131.191,-76.53 0,-42.09 59.043,-76.53 131.191,-76.53 h 7.461" />
      <path id="path50" style="fill:none;stroke:#54aabf;stroke-width:25;stroke-linecap:butt;stroke-linejoin:miter;stroke-miterlimit:10;stroke-dasharray:none;stroke-opacity:1" d="m 791.953,1773.64 c 72.156,0 131.192,-73.5 131.192,-163.34 v -524.87 c 0,-89.828 -59.036,-163.34 -131.192,-163.34 h -7.461 c -72.148,0 -131.191,-34.43 -131.191,-76.52 0,-42.09 59.043,-76.531 131.191,-76.531 h 130.391 c 72.168,0 131.197,73.5 131.197,163.332 v 830.989 c 0,89.84 -59.029,163.34 -131.197,163.34 H 784.492 c -72.148,0 -131.191,-34.44 -131.191,-76.53 0,-42.09 59.043,-76.53 131.191,-76.53 z" />
      <path id="path52" style="fill:#231f20;fill-opacity:1;fill-rule:nonzero;stroke:none" d="m 144.363,466.352 h -29.566 v 48.039 h 79.258 v -29.559 c 12.73,22.578 31.621,33.668 59.961,33.668 28.738,0 48.457,-12.328 63.242,-38.602 20.113,26.684 39.414,38.602 67.344,38.602 48.867,0 77.617,-32.441 77.617,-94.871 v -84.18 h 30.789 V 291 H 381.316 v 48.449 h 30.383 v 82.949 c 0,32.864 -13.136,49.282 -39.011,49.282 -28.34,0 -45.586,-20.942 -45.586,-61.192 v -71.039 h 30.796 V 291 H 248.254 v 48.449 h 30.391 v 82.949 c 0,32.864 -12.727,49.282 -39.004,49.282 -28.34,0 -45.586,-20.942 -45.586,-61.192 v -71.039 h 30.386 V 291 H 113.977 v 48.449 h 30.386 v 126.903" />
      <path id="path54" style="fill:#231f20;fill-opacity:1;fill-rule:nonzero;stroke:none" d="M 518.445,466.352 H 491.34 v 48.039 h 107.183 v -48.039 h -27.105 l 38.191,-99.801 39.012,99.801 h -27.105 v 48.039 H 728.293 V 466.352 H 701.184 L 621.926,267.988 h 34.09 V 219.531 H 534.871 v 48.457 h 34.082 l 14.375,35.321 -64.883,163.043" />
      <path id="path56" style="fill:#656263;fill-opacity:1;fill-rule:nonzero;stroke:none" d="m 1059.8,335.762 c 36.56,0 65.3,27.91 65.3,66.929 0,39.008 -28.74,66.938 -65.3,66.938 -38.6,0 -66.53,-28.328 -66.53,-66.938 0,-38.609 27.93,-66.929 66.53,-66.929 z m -117.027,199.16 h -29.558 v 48.047 h 79.644 v -95.68 c 19.311,22.172 41.491,32.031 70.651,32.031 66.52,0 114.98,-49.281 114.98,-116.629 0,-67.339 -48.46,-116.211 -114.98,-116.211 -27.52,0 -48.46,9.032 -70.651,29.981 V 291 h -80.894 v 48.449 h 30.808 v 195.473" />
      <path id="path58" style="fill:#656263;fill-opacity:1;fill-rule:nonzero;stroke:none" d="m 1376.4,422.809 c -9.45,31.632 -33.68,49.691 -62.42,49.691 -28.34,0 -53.38,-18.469 -62.83,-49.691 z M 1313.56,285.66 c -32.43,0 -61.59,11.5 -84.17,33.68 -22.18,21.762 -34.5,50.922 -34.5,83.351 0,32.45 12.32,61.598 34.5,83.368 22.58,22.16 51.74,34.082 84.17,34.082 32.46,0 62.44,-11.922 84.6,-34.082 22.18,-21.77 34.51,-50.508 34.51,-80.489 0,-5.75 -0.83,-13.968 -2.47,-24.648 h -178.23 c 9.45,-27.91 34.49,-45.16 62.01,-45.16 20.94,0 39.01,9.027 51.74,26.687 h 59.96 c -17.25,-47.64 -61.19,-76.789 -112.12,-76.789" />
      <path id="path60" style="fill:#656263;fill-opacity:1;fill-rule:nonzero;stroke:none" d="m 1513.57,382.23 c 9.46,-31.621 33.68,-49.691 62.43,-49.691 28.34,0 53.38,18.481 62.83,49.691 z m 62.84,137.161 c 32.44,0 61.6,-11.512 84.18,-33.692 22.18,-21.75 34.49,-50.91 34.49,-83.347 0,-32.454 -12.31,-61.602 -34.49,-83.364 -22.58,-22.179 -51.74,-34.09 -84.18,-34.09 -32.45,0 -62.43,11.911 -84.6,34.09 -22.17,21.762 -34.51,50.5 -34.51,80.481 0,5.75 0.84,13.972 2.49,24.64 h 178.22 c -9.46,27.922 -34.49,45.172 -62.01,45.172 -20.94,0 -39.02,-9.031 -51.74,-26.691 h -59.96 c 17.24,47.64 61.19,76.801 112.11,76.801" />
      <path id="path62" style="fill:#656263;fill-opacity:1;fill-rule:nonzero;stroke:none" d="m 1746.27,466.352 h -29.56 v 48.039 h 79.25 v -29.559 c 12.73,22.578 31.62,33.668 59.96,33.668 28.75,0 48.46,-12.328 63.24,-38.602 20.12,26.684 39.43,38.602 67.34,38.602 48.87,0 77.62,-32.441 77.62,-94.871 v -84.18 h 30.8 V 291 h -111.7 v 48.449 h 30.39 v 82.949 c 0,32.864 -13.14,49.282 -39.02,49.282 -28.34,0 -45.59,-20.942 -45.59,-61.192 v -71.039 h 30.8 V 291 h -109.63 v 48.449 h 30.39 v 82.949 c 0,32.864 -12.74,49.282 -39.02,49.282 -28.32,0 -45.58,-20.942 -45.58,-61.192 v -71.039 h 30.39 V 291 h -110.47 v 48.449 h 30.39 v 126.903" />
      <path id="path64" style="fill:#54aabf;fill-opacity:1;fill-rule:nonzero;stroke:none" d="m 852.551,458.988 c 0,-19.117 -15.508,-34.629 -34.621,-34.629 -19.121,0 -34.617,15.512 -34.617,34.629 0,19.114 15.496,34.614 34.617,34.614 19.113,0 34.621,-15.5 34.621,-34.614" />
      <path id="path66" style="fill:#71bd4d;fill-opacity:1;fill-rule:nonzero;stroke:none" d="m 852.551,346.41 c 0,-19.121 -15.508,-34.629 -34.621,-34.629 -19.121,0 -34.617,15.508 -34.617,34.629 0,19.11 15.496,34.61 34.617,34.61 19.113,0 34.621,-15.5 34.621,-34.61" />
    </g>
  </g>
</svg>